<svg xmlns="http://www.w3.org/2000/svg" xmlns:xlink="http://www.w3.org/1999/xlink" viewBox="0,0,256,256" width="100px" height="100px" fill-rule="nonzero"><g fill="#13473d" fill-rule="nonzero" stroke="none" stroke-width="1" stroke-linecap="butt" stroke-linejoin="miter" stroke-miterlimit="10" stroke-dasharray="" stroke-dashoffset="0" font-family="none" font-weight="none" font-size="none" text-anchor="none" style="mix-blend-mode: normal"><g transform="scale(5.12,5.12)"><path d="M12,2c-3.309,0 -6,2.691 -6,6v33.41797c0,3.078 2.691,5.58203 6,5.58203v-2c-2.168,0 -4,-1.64003 -4,-3.58203c0,-1.916 1.757,-3.41797 4,-3.41797h22v-36zM36,2v36h8v-36zM14,40v9c0,0.379 0.21373,0.72453 0.55273,0.89453c0.339,0.168 0.74488,0.13525 1.04688,-0.09375l3.40039,-2.55078l3.40039,2.55078c0.176,0.133 0.38761,0.19922 0.59961,0.19922c0.152,0 0.30627,-0.03547 0.44727,-0.10547c0.339,-0.17 0.55273,-0.51553 0.55273,-0.89453v-9zM26,45v2h18v-2z"></path></g></g></svg>