<?xml version="1.0" encoding="UTF-8"?><svg id="Layer_2" xmlns="http://www.w3.org/2000/svg" viewBox="0 0 978.91 217.11"><defs><style>.cls-1{fill:#13473d;}</style></defs><g id="Layer_1-2"><path class="cls-1" d="M53.81,29.5H0V4.72h134.75v24.78h-53.81v140.42h-27.14V29.5Z"/><path class="cls-1" d="M135.46,56.64h25.96v11.8c6.37-8.97,16.28-14.16,29.5-14.16,11.33,0,20.3,4.01,28.08,12.98l-16.99,17.46c-4.25-4.25-8.97-6.14-15.58-6.14-14.63,0-25.02,8.97-25.02,28.32v63.01h-25.96V56.64Z"/><path class="cls-1" d="M234.11,20.3c0-8.73,6.37-15.58,15.34-15.58s15.34,6.84,15.34,15.58-6.37,15.58-15.34,15.58-15.34-6.84-15.34-15.58ZM236.47,56.64h25.96v113.28h-25.96V56.64Z"/><path class="cls-1" d="M289.1,113.51c0-33.27,23.84-59.23,54.51-59.23,14.4,0,26.67,5.66,34.69,14.87v-12.51h25.96v113.28h-25.96v-12.27c-8.02,9.2-20.29,14.63-34.69,14.63-30.68,0-54.51-25.72-54.51-58.76ZM379.95,113.28c0-20.3-12.98-34.46-32.09-34.46s-32.09,14.16-32.09,34.46,13.21,34.45,32.09,34.45,32.09-14.16,32.09-34.45Z"/><path class="cls-1" d="M437.77,0h25.96v169.92h-25.96V0Z"/><path class="cls-1" d="M488.98,144.43l18.41-18.41c9.2,13.22,20.77,21,40.35,21,18.17,0,29.97-8.02,29.97-21.24,0-38.7-78.35-18.41-78.35-77.41,0-29.03,23.6-46.02,54.04-46.02,21.71,0,39.17,9.44,50.03,22.66l-18.41,18.41c-9.44-10.62-19.12-15.81-32.33-15.81-16.52,0-26.2,6.84-26.2,18.88,0,34.93,78.35,16.28,78.35,77.64,0,29.73-22.42,48.14-58.05,48.14-26.2,0-43.42-9.44-57.82-27.85Z"/><path class="cls-1" d="M660.79,158.59l-42.95-101.95h28.56l29.03,73.87,30.68-73.87h28.79l-52.63,114.46-21,46.02h-28.79l28.32-58.53Z"/><path class="cls-1" d="M750.94,105.25c0-30.21,20.3-50.97,50.5-50.97s50.5,20.3,50.5,50.97v64.66h-25.96v-62.77c0-16.75-8.26-27.85-24.54-27.85s-24.54,11.33-24.54,27.85v62.77h-25.96v-64.66Z"/><path class="cls-1" d="M875.31,113.28c0-33.28,25.72-59,59.47-59,17.46,0,33.51,7.08,44.13,19.59l-16.99,17.23c-6.61-7.79-16.05-11.8-27.14-11.8-19.35,0-32.8,13.92-32.8,33.98s13.45,33.98,32.8,33.98c11.09,0,20.53-4.01,27.14-11.8l16.99,17.23c-10.62,12.51-26.67,19.59-44.13,19.59-33.75,0-59.47-25.72-59.47-59Z"/></g></svg>