<svg xmlns="http://www.w3.org/2000/svg" xmlns:xlink="http://www.w3.org/1999/xlink" viewBox="0,0,256,256" width="100px" height="100px" fill-rule="nonzero"><g fill="#13473d" fill-rule="nonzero" stroke="none" stroke-width="1" stroke-linecap="butt" stroke-linejoin="miter" stroke-miterlimit="10" stroke-dasharray="" stroke-dashoffset="0" font-family="none" font-weight="none" font-size="none" text-anchor="none" style="mix-blend-mode: normal"><g transform="scale(5.12,5.12)"><path d="M23,5c-1.09375,0 -2,0.90625 -2,2v6h-14.33203c-2.02344,0 -3.66797,1.58203 -3.66797,3.53125v22.9375c0,1.95313 1.64453,3.53125 3.66797,3.53125h36.66406c2.02734,0 3.66797,-1.58203 3.66797,-3.53125v-22.9375c0,-1.94922 -1.64453,-3.53125 -3.66797,-3.53125h-13.33203v-6c0,-1.09375 -0.90625,-2 -2,-2zM23,7h5v8h-5zM14.96094,19c0.92969,0 1.64844,0.24609 1.92969,0.73438c2.71875,0.37891 1.90234,4.01563 1.51172,5.19141c0.14453,0.08984 0.38281,0.36719 0.32031,0.86719c-0.10937,0.92578 -0.49219,1.15625 -0.73437,1.17578c-0.08984,0.86328 -0.64062,1.88672 -0.94922,2.04688c0,0.61719 -0.02344,1.08984 0.03906,1.76563c0.73438,1.96875 5.69141,1.41406 5.92188,5.21875v1h-16v-1c0.23047,-3.80469 5.20703,-3.25 5.94531,-5.21875c0.0625,-0.67578 0.03906,-1.14844 0.03906,-1.76562c-0.30859,-0.15625 -0.88281,-1.18359 -0.97266,-2.04687c-0.24219,-0.01953 -0.625,-0.25 -0.73437,-1.17578c-0.0625,-0.5 0.17578,-0.77734 0.32031,-0.86719c-0.81641,-3.12891 -0.20312,-5.92578 3.36328,-5.92578zM26,21h18v2h-18zM26,25h14v2h-14zM26,29h11v2h-11zM26,33h14v2h-14z"></path></g></g></svg>