<svg xmlns="http://www.w3.org/2000/svg" xmlns:xlink="http://www.w3.org/1999/xlink" viewBox="0,0,256,256" width="100px" height="100px" fill-rule="nonzero"><g fill="#13473d" fill-rule="nonzero" stroke="none" stroke-width="1" stroke-linecap="butt" stroke-linejoin="miter" stroke-miterlimit="10" stroke-dasharray="" stroke-dashoffset="0" font-family="none" font-weight="none" font-size="none" text-anchor="none" style="mix-blend-mode: normal"><g transform="scale(5.12,5.12)"><path d="M13,1.99805c-0.211,0 -0.42211,0.06717 -0.59961,0.20117l-3.40039,2.55078l-3.40039,-2.55078c-0.303,-0.228 -0.70887,-0.26175 -1.04687,-0.09375c-0.339,0.17 -0.55273,0.51553 -0.55273,0.89453v42c0,0.553 0.447,1 1,1h27.02734c1.66935,1.25005 3.73304,2 5.97266,2c5.511,0 10,-4.489 10,-10c0,-3.27195 -1.59018,-6.17412 -4.0293,-8c0.64813,-1.012 1.0293,-2.21402 1.0293,-3.5c0,-3.57827 -2.92173,-6.5 -6.5,-6.5c-0.17045,0 -0.3347,0.02611 -0.50195,0.03906v-17.03906c0.001,-0.379 -0.21178,-0.72453 -0.55078,-0.89453c-0.339,-0.167 -0.74387,-0.13325 -1.04687,0.09375l-3.40039,2.55078l-3.40039,-2.55078c-0.355,-0.268 -0.84422,-0.268 -1.19922,0l-3.40039,2.55078l-3.40039,-2.55078c-0.355,-0.268 -0.84422,-0.268 -1.19922,0l-3.40039,2.55078l-3.40039,-2.55078c-0.1775,-0.134 -0.38861,-0.20117 -0.59961,-0.20117zM11,14h20v2h-20zM38.5,22c2.49773,0 4.5,2.00227 4.5,4.5c0,0.91718 -0.27888,1.75646 -0.74609,2.46484c-1.17225,-0.55475 -2.46597,-0.88581 -3.83203,-0.94336c-0.69944,-1.73994 -1.9914,-3.1765 -3.625,-4.06055c0.80915,-1.17901 2.15596,-1.96094 3.70313,-1.96094zM11,23h20c-2.01847,0 -3.86142,0.75919 -5.27148,2h-14.72852zM31,25c2.29098,0 4.25744,1.28469 5.26953,3.16016c-4.12435,0.72505 -7.38354,3.98333 -8.10937,8.10742c-1.875,-1.01167 -3.16016,-2.97726 -3.16016,-5.26758c0,-3.32556 2.67444,-6 6,-6zM11,29h12.26367c-0.16616,0.64056 -0.26367,1.30869 -0.26367,2h-12zM38,30c4.43012,0 8,3.56988 8,8c0,4.43012 -3.56988,8 -8,8c-4.43012,0 -8,-3.56988 -8,-8c0,-4.43012 3.56988,-8 8,-8zM35.82813,33.5l-0.82422,4.63281h1.53125c0.168,-0.232 0.52225,-0.66992 1.28125,-0.66992c0.271,0 1.44922,0.10436 1.44922,1.56836c0,0.52 -0.31022,1.61523 -1.44922,1.61523c-1.06,0 -1.33695,-0.87481 -1.37695,-1.25781h-1.70117c-0.016,1.007 0.70928,2.64648 3.11328,2.64648c2.284,0 3.11328,-1.89991 3.11328,-3.00391c0,-0.579 -0.30494,-2.84961 -2.58594,-2.84961c-0.964,0 -1.40962,0.41448 -1.64062,0.64648l-0.02344,-0.02344l0.33398,-1.9043h3.46094v-1.40039zM11,35h13.08008c0.43656,0.75286 0.99128,1.42784 1.64063,2h-14.7207z"></path></g></g></svg>